<svg xmlns="http://www.w3.org/2000/svg" viewBox="0 0 20 20">
  <path d="M16.1465 9.14648C16.3417 8.9514 16.6583 8.95151 16.8535 9.14648L18.3535 10.6465C18.5485 10.8417 18.5486 11.1583 18.3535 11.3535C18.1583 11.5486 17.8417 11.5485 17.6465 11.3535L17 10.707V14.5C16.9998 15.8805 15.8805 16.9999 14.5 17H10.707L11.3535 17.6465C11.5485 17.8417 11.5486 18.1583 11.3535 18.3535C11.1583 18.5486 10.8417 18.5485 10.6465 18.3535L9.14648 16.8535C8.95152 16.6583 8.95142 16.3417 9.14648 16.1465L10.6465 14.6465C10.8417 14.4514 11.1583 14.4515 11.3535 14.6465C11.5485 14.8417 11.5486 15.1583 11.3535 15.3535L10.707 16H14.5C15.3282 15.9999 15.9998 15.3282 16 14.5V10.707L15.3535 11.3535C15.1583 11.5486 14.8417 11.5485 14.6465 11.3535C14.4515 11.1583 14.4514 10.8417 14.6465 10.6465L16.1465 9.14648ZM14.5 3C15.8807 3 17 4.11929 17 5.5V8.08594C16.677 7.97192 16.323 7.97199 16 8.08594V5.5C16 4.67157 15.3284 4 14.5 4H5.5C4.67157 4 4 4.67157 4 5.5V14.5C4 15.3284 4.67157 16 5.5 16H8.08691C7.9727 16.3234 7.97205 16.6771 8.08594 17H5.5L5.24414 16.9873C4.06772 16.8677 3.13227 15.9323 3.0127 14.7559L3 14.5V5.5C3 4.11929 4.11929 3 5.5 3H14.5ZM7.5 9C7.77614 9 8 9.22386 8 9.5V14.5C8 14.7761 7.77614 15 7.5 15H5.5C5.22386 15 5 14.7761 5 14.5V9.5C5 9.22386 5.22386 9 5.5 9H7.5ZM7.5 5C7.77614 5 8 5.22386 8 5.5V7.5C8 7.77614 7.77614 8 7.5 8H5.5C5.22386 8 5 7.77614 5 7.5V5.5C5 5.22386 5.22386 5 5.5 5H7.5ZM14.5 5C14.7761 5 15 5.22386 15 5.5V7.5C15 7.77614 14.7761 8 14.5 8H9.5C9.22386 8 9 7.77614 9 7.5V5.5C9 5.22386 9.22386 5 9.5 5H14.5Z"/>
</svg>
